<svg xmlns="http://www.w3.org/2000/svg" width="1050" height="238" viewBox="0 0 1050 238">
  <defs>
    <style>
      .bg { fill: #ffffff; }
      .header-bg { fill: #1a1a2e; }
      .row-even { fill: #f8f9fa; }
      .row-odd { fill: #ffffff; }
      .header-text { font-family: -apple-system, BlinkMacSystemFont, 'Segoe UI', Roboto, Arial, sans-serif; font-size: 13px; font-weight: 600; fill: #ffffff; }
      .rank { font-family: -apple-system, BlinkMacSystemFont, 'Segoe UI', Roboto, Arial, sans-serif; font-size: 14px; font-weight: 700; fill: #6c757d; }
      .rank-top { fill: #ffc107; }
      .model { font-family: -apple-system, BlinkMacSystemFont, 'Segoe UI', Roboto, Arial, sans-serif; font-size: 14px; font-weight: 500; fill: #212529; }
      .elo { font-family: -apple-system, BlinkMacSystemFont, 'Segoe UI', Roboto, Arial, sans-serif; font-size: 14px; font-weight: 700; fill: #0d6efd; }
      .ci { font-family: -apple-system, BlinkMacSystemFont, 'Segoe UI', Roboto, Arial, sans-serif; font-size: 12px; fill: #6c757d; }
      .games { font-family: -apple-system, BlinkMacSystemFont, 'Segoe UI', Roboto, Arial, sans-serif; font-size: 13px; fill: #495057; }
      .winrate { font-family: -apple-system, BlinkMacSystemFont, 'Segoe UI', Roboto, Arial, sans-serif; font-size: 13px; fill: #198754; }
      .border { stroke: #dee2e6; stroke-width: 1; fill: none; }
      .footnote { font-family: -apple-system, BlinkMacSystemFont, 'Segoe UI', Roboto, Arial, sans-serif; font-size: 11px; fill: #6c757d; font-style: italic; }
    </style>
  </defs>

  <!-- Background -->
  <rect class="bg" width="1050" height="238" rx="8"/>
  <rect class="border" x="0.5" y="0.5" width="1049" height="237" rx="8"/>

  <!-- Header -->
  <rect class="header-bg" width="1050" height="44" rx="8"/>
  <rect class="header-bg" y="8" width="1050" height="36"/>

  <text x="20" y="27.0" class="header-text">#</text>
  <text x="55" y="27.0" class="header-text">Model</text>
  <text x="280" y="27.0" class="header-text">ELO</text>
  <text x="340" y="27.0" class="header-text">CI</text>
  <text x="400" y="27.0" class="header-text">1st-Shot</text>
  <text x="460" y="27.0" class="header-text">1S CI</text>
  <text x="520" y="27.0" class="header-text">Valid</text>
  <text x="580" y="27.0" class="header-text">V%</text>
  <text x="650" y="27.0" class="header-text">Games</text>
  <text x="720" y="27.0" class="header-text">Win%</text>
  <text x="790" y="27.0" class="header-text">1S%</text>

  <!-- Row 1 -->
  <rect class="row-even" y="44" width="1050" height="36"/>
  <text x="20" y="67.0" class="rank rank-top">1</text>
  <text x="55" y="67.0" class="model">Kimi K2 Thinking †</text>
  <text x="280" y="67.0" class="elo">1500</text>
  <text x="340" y="67.0" class="ci">±inf</text>
  <text x="400" y="67.0" class="elo">1500</text>
  <text x="460" y="67.0" class="ci">-</text>
  <text x="520" y="67.0" class="elo">1500</text>
  <text x="580" y="67.0" class="winrate">0.0%</text>
  <text x="650" y="67.0" class="games">0</text>
  <text x="720" y="67.0" class="winrate">0.0%</text>
  <text x="790" y="67.0" class="winrate">0.0%</text>
  <!-- Row 2 -->
  <rect class="row-odd" y="80" width="1050" height="36"/>
  <text x="20" y="103.0" class="rank rank-top">2</text>
  <text x="55" y="103.0" class="model">Gemini 3 Flash Preview</text>
  <text x="280" y="103.0" class="elo">1177</text>
  <text x="340" y="103.0" class="ci">±25</text>
  <text x="400" y="103.0" class="elo">1082</text>
  <text x="460" y="103.0" class="ci">±25</text>
  <text x="520" y="103.0" class="elo">1193</text>
  <text x="580" y="103.0" class="winrate">47.2%</text>
  <text x="650" y="103.0" class="games">250</text>
  <text x="720" y="103.0" class="winrate">44.4%</text>
  <text x="790" y="103.0" class="winrate">31.2%</text>
  <!-- Row 3 -->
  <rect class="row-even" y="116" width="1050" height="36"/>
  <text x="20" y="139.0" class="rank rank-top">3</text>
  <text x="55" y="139.0" class="model">Gpt Oss 120B</text>
  <text x="280" y="139.0" class="elo">902</text>
  <text x="340" y="139.0" class="ci">±25</text>
  <text x="400" y="139.0" class="elo">833</text>
  <text x="460" y="139.0" class="ci">±25</text>
  <text x="520" y="139.0" class="elo">1073</text>
  <text x="580" y="139.0" class="winrate">66.0%</text>
  <text x="650" y="139.0" class="games">250</text>
  <text x="720" y="139.0" class="winrate">40.4%</text>
  <text x="790" y="139.0" class="winrate">31.2%</text>
  <!-- Row 4 -->
  <rect class="row-odd" y="152" width="1050" height="36"/>
  <text x="20" y="175.0" class="rank">4</text>
  <text x="55" y="175.0" class="model">Kimi K2 0905</text>
  <text x="280" y="175.0" class="elo">500</text>
  <text x="340" y="175.0" class="ci">±38</text>
  <text x="400" y="175.0" class="elo">500</text>
  <text x="460" y="175.0" class="ci">±38</text>
  <text x="520" y="175.0" class="elo">509</text>
  <text x="580" y="175.0" class="winrate">1.9%</text>
  <text x="650" y="175.0" class="games">107</text>
  <text x="720" y="175.0" class="winrate">0.0%</text>
  <text x="790" y="175.0" class="winrate">0.0%</text>
  <!-- Footnote -->
  <text x="55" y="208" class="footnote">† Low confidence: fewer than 30 games or 95% CI exceeds ±100 ELO</text>
</svg>